<svg id="visual" viewBox="0 0 960 540" width="960" height="540" xmlns="http://www.w3.org/2000/svg" xmlns:xlink="http://www.w3.org/1999/xlink" version="1.1"><rect x="0" y="0" width="960" height="540" fill="#fff7f0"></rect><path d="M0 148L22.8 146C45.7 144 91.3 140 137 148.2C182.7 156.3 228.3 176.7 274 173.3C319.7 170 365.3 143 411.2 129.8C457 116.7 503 117.3 548.8 118.2C594.7 119 640.3 120 686 120.2C731.7 120.3 777.3 119.7 823 127.2C868.7 134.7 914.3 150.3 937.2 158.2L960 166L960 0L937.2 0C914.3 0 868.7 0 823 0C777.3 0 731.7 0 686 0C640.3 0 594.7 0 548.8 0C503 0 457 0 411.2 0C365.3 0 319.7 0 274 0C228.3 0 182.7 0 137 0C91.3 0 45.7 0 22.8 0L0 0Z" fill="#02c39a"></path><path d="M0 95L22.8 97.2C45.7 99.3 91.3 103.7 137 109C182.7 114.3 228.3 120.7 274 123.8C319.7 127 365.3 127 411.2 122.8C457 118.7 503 110.3 548.8 113.7C594.7 117 640.3 132 686 137.7C731.7 143.3 777.3 139.7 823 130.3C868.7 121 914.3 106 937.2 98.5L960 91L960 0L937.2 0C914.3 0 868.7 0 823 0C777.3 0 731.7 0 686 0C640.3 0 594.7 0 548.8 0C503 0 457 0 411.2 0C365.3 0 319.7 0 274 0C228.3 0 182.7 0 137 0C91.3 0 45.7 0 22.8 0L0 0Z" fill="#00ad9f"></path><path d="M0 73L22.8 75C45.7 77 91.3 81 137 80.3C182.7 79.7 228.3 74.3 274 78.7C319.7 83 365.3 97 411.2 98.2C457 99.3 503 87.7 548.8 82C594.7 76.3 640.3 76.7 686 80.7C731.7 84.7 777.3 92.3 823 90.8C868.7 89.3 914.3 78.7 937.2 73.3L960 68L960 0L937.2 0C914.3 0 868.7 0 823 0C777.3 0 731.7 0 686 0C640.3 0 594.7 0 548.8 0C503 0 457 0 411.2 0C365.3 0 319.7 0 274 0C228.3 0 182.7 0 137 0C91.3 0 45.7 0 22.8 0L0 0Z" fill="#00979b"></path><path d="M0 44L22.8 42.5C45.7 41 91.3 38 137 40.3C182.7 42.7 228.3 50.3 274 55.7C319.7 61 365.3 64 411.2 65C457 66 503 65 548.8 59.3C594.7 53.7 640.3 43.3 686 44.7C731.7 46 777.3 59 823 61C868.7 63 914.3 54 937.2 49.5L960 45L960 0L937.2 0C914.3 0 868.7 0 823 0C777.3 0 731.7 0 686 0C640.3 0 594.7 0 548.8 0C503 0 457 0 411.2 0C365.3 0 319.7 0 274 0C228.3 0 182.7 0 137 0C91.3 0 45.7 0 22.8 0L0 0Z" fill="#028090"></path></svg>