<svg id="visual" viewBox="0 0 900 600" width="900" height="600" xmlns="http://www.w3.org/2000/svg" xmlns:xlink="http://www.w3.org/1999/xlink" version="1.1"><g transform="translate(463.45860451777867 256.65010717991214)"><path d="M97 -132.7C134.9 -126.6 181.2 -115.2 190.8 -88.7C200.4 -62.2 173.5 -20.6 182.8 37.7C192.1 95.9 237.8 170.7 229.2 221.3C220.7 271.8 158 298.1 98.7 298.1C39.4 298.1 -16.3 271.9 -68.1 248.9C-119.9 226 -167.6 206.3 -179.5 168.8C-191.4 131.3 -167.5 76 -183.3 21.3C-199.1 -33.5 -254.6 -87.6 -257.1 -132.1C-259.6 -176.6 -209 -211.5 -157.3 -211.4C-105.6 -211.2 -52.8 -175.9 -11.6 -157.8C29.6 -139.7 59.1 -138.9 97 -132.7" fill="#4ea8de"></path></g></svg>