<svg xmlns="http://www.w3.org/2000/svg" version="1.1" xmlns:xlink="http://www.w3.org/1999/xlink" width="512" height="512" x="0" y="0" viewBox="0 0 100 100" style="enable-background:new 0 0 512 512" xml:space="preserve"><g><path d="M79.2 75c-.5 0-.9 0-1.3-.1-4.1-4.7-7.6-9.8-10.3-15.5-1.4-2.9-5.9-.8-4.5 2.1 2.2 4.5 4.8 8.7 7.7 12.6C41.9 68.8 26.2 39.7 22.1 12c-.5-3.2-5.4-2.3-4.9.8 4.2 28.5 20.5 58.1 49 65.4-6 1.1-11.8 2.9-17.4 5.4-1.4.6-1.9 2.7-.8 3.9 2 2.1 3.6 2.7 6.5 2.5 2.2-.1 2.5-2.4 1.4-3.8 7-2.5 14.3-3.9 21.8-4.1.2.2.4.4.6.5 2.3 2.2 6.1-1 3.8-3.2l-.1-.1c0-.6-.2-1.2-.6-1.6.1-1.4-.6-2.7-2.2-2.7z" fill="#ffffff" opacity="1" data-original="#000000"></path></g></svg>