<svg xmlns="http://www.w3.org/2000/svg" version="1.1" xmlns:xlink="http://www.w3.org/1999/xlink" width="512" height="512" x="0" y="0" viewBox="0 0 24 24" style="enable-background:new 0 0 512 512" xml:space="preserve" class=""><g><path d="M18 15.991a5.975 5.975 0 0 1-2.788 5.068.466.466 0 0 0-.212.4v1.54a1 1 0 1 1-2 0v-1.54c0-.855.426-1.637 1.141-2.09A3.983 3.983 0 0 0 16 15.99c0-.98-.359-1.915-1-2.641v.375c0 1.657-1.028 2.983-2.501 3.225a3.027 3.027 0 0 1-2.439-.672A2.994 2.994 0 0 1 9 13.99v-.641c-.641.725-1 1.66-1 2.641 0 1.377.695 2.641 1.86 3.379a2.458 2.458 0 0 1 1.14 2.09v1.54a1 1 0 1 1-2 0v-1.54a.466.466 0 0 0-.212-.4A5.975 5.975 0 0 1 6 15.991a5.98 5.98 0 0 1 2.133-4.582 1.722 1.722 0 0 1 1.855-.244A1.73 1.73 0 0 1 11 12.748v1.243a1.003 1.003 0 0 0 1.174.986c.486-.08.825-.594.825-1.251v-.979a1.73 1.73 0 0 1 1.012-1.583 1.726 1.726 0 0 1 1.854.245 5.983 5.983 0 0 1 2.134 4.583ZM4.5 3a1.5 1.5 0 1 0 .001 3.001A1.5 1.5 0 0 0 4.5 3Zm4 0a1.5 1.5 0 1 0 .001 3.001A1.5 1.5 0 0 0 8.5 3ZM24 5v12c0 2.757-2.243 5-5 5a1 1 0 1 1 0-2c1.654 0 3-1.346 3-3V9H2v8c0 1.654 1.346 3 3 3a1 1 0 1 1 0 2c-2.757 0-5-2.243-5-5V5c0-2.757 2.243-5 5-5h14c2.757 0 5 2.243 5 5Zm-2 2V5c0-1.654-1.346-3-3-3H5C3.346 2 2 3.346 2 5v2h20Z" fill="#778bed" opacity="1" data-original="#000000" class=""></path></g></svg>