<svg xmlns="http://www.w3.org/2000/svg" version="1.1" xmlns:xlink="http://www.w3.org/1999/xlink" width="512" height="512" x="0" y="0" viewBox="0 0 24 24" style="enable-background:new 0 0 512 512" xml:space="preserve" class=""><g><path d="M21.916 8.727 3.965.282A2.745 2.745 0 0 0 .917.713a2.745 2.745 0 0 0-.745 2.995c.017.043 4.411 8.296 4.411 8.296S.27 20.255.255 20.297a2.744 2.744 0 0 0 .749 2.993 2.756 2.756 0 0 0 1.841.708c.409 0 .819-.092 1.201-.279l17.872-8.438A3.586 3.586 0 0 0 24 12.003c0-1.42-.801-2.675-2.084-3.275ZM2.032 2.967a.745.745 0 0 1 .223-.768.744.744 0 0 1 .838-.116l17.974 8.455c.239.112.438.27.591.462H6.315L2.032 2.967Zm19.034 10.504L3.178 21.917a.738.738 0 0 1-.838-.116.74.74 0 0 1-.223-.769L6.319 13h15.345a1.645 1.645 0 0 1-.597.471Z" fill="#ffffff" opacity="1" data-original="#000000"></path></g></svg>